<svg width="39" height="39" viewBox="0 0 39 39" fill="none" xmlns="http://www.w3.org/2000/svg">
<path d="M31.3142 8.66132C29.1529 7.65382 26.8129 6.92257 24.3754 6.50007C24.3541 6.49939 24.3328 6.5034 24.3132 6.51182C24.2935 6.52025 24.2759 6.53288 24.2617 6.54883C23.9692 7.08508 23.6279 7.78382 23.4004 8.32007C20.8151 7.93007 18.1858 7.93007 15.6004 8.32007C15.3729 7.76757 15.0317 7.08508 14.7229 6.54883C14.7067 6.51633 14.6579 6.50007 14.6092 6.50007C12.1717 6.92257 9.84794 7.65382 7.67043 8.66132C7.65418 8.66132 7.63794 8.67757 7.62169 8.69382C3.20168 15.3076 1.98293 21.7426 2.58418 28.1126C2.58418 28.1451 2.60043 28.1776 2.63293 28.1938C5.55793 30.3388 8.36919 31.6388 11.1479 32.5001C11.1967 32.5163 11.2454 32.5001 11.2617 32.4676C11.9117 31.5738 12.4967 30.6313 13.0004 29.6401C13.0329 29.5751 13.0004 29.5101 12.9354 29.4938C12.0092 29.1363 11.1317 28.7138 10.2704 28.2263C10.2054 28.1938 10.2054 28.0963 10.2542 28.0476C10.4329 27.9176 10.6117 27.7713 10.7904 27.6413C10.8229 27.6088 10.8717 27.6088 10.9042 27.6251C16.4942 30.1763 22.5229 30.1763 28.0479 27.6251C28.0804 27.6088 28.1292 27.6088 28.1617 27.6413C28.3404 27.7876 28.5192 27.9176 28.6979 28.0638C28.7629 28.1126 28.7629 28.2101 28.6817 28.2426C27.8367 28.7463 26.9429 29.1526 26.0167 29.5101C25.9517 29.5263 25.9354 29.6076 25.9517 29.6563C26.4717 30.6476 27.0567 31.5901 27.6904 32.4838C27.7392 32.5001 27.7879 32.5163 27.8367 32.5001C30.6317 31.6388 33.4429 30.3388 36.3679 28.1938C36.4004 28.1776 36.4167 28.1451 36.4167 28.1126C37.1317 20.7513 35.2304 14.3651 31.3792 8.69382C31.3629 8.67757 31.3467 8.66132 31.3142 8.66132ZM13.8454 24.2288C12.1717 24.2288 10.7742 22.6851 10.7742 20.7838C10.7742 18.8826 12.1392 17.3388 13.8454 17.3388C15.5679 17.3388 16.9329 18.8988 16.9167 20.7838C16.9167 22.6851 15.5517 24.2288 13.8454 24.2288ZM25.1717 24.2288C23.4979 24.2288 22.1004 22.6851 22.1004 20.7838C22.1004 18.8826 23.4654 17.3388 25.1717 17.3388C26.8942 17.3388 28.2592 18.8988 28.2429 20.7838C28.2429 22.6851 26.8942 24.2288 25.1717 24.2288Z" fill="black"/>
</svg>
