<svg width="39" height="39" viewBox="0 0 39 39" fill="none" xmlns="http://www.w3.org/2000/svg">
<path d="M19.5 3.65625C16.3664 3.65625 13.3032 4.58547 10.6977 6.3264C8.0922 8.06734 6.06147 10.5418 4.86229 13.4369C3.66311 16.3319 3.34936 19.5176 3.96069 22.591C4.57203 25.6644 6.081 28.4874 8.29678 30.7032C10.5126 32.919 13.3357 34.428 16.409 35.0393C19.4824 35.6507 22.6681 35.3369 25.5631 34.1377C28.4582 32.9385 30.9327 30.9078 32.6736 28.3023C34.4145 25.6968 35.3438 22.6336 35.3438 19.5C35.3389 15.2995 33.6681 11.2724 30.6979 8.30212C27.7277 5.33189 23.7005 3.66109 19.5 3.65625ZM32.9063 19.5C32.9073 20.7364 32.7366 21.9669 32.399 23.1562H26.5322C26.906 20.7331 26.906 18.2669 26.5322 15.8438H32.399C32.7366 17.0331 32.9073 18.2636 32.9063 19.5ZM15.5391 25.5938H23.4609C22.6806 28.151 21.3257 30.4959 19.5 32.4492C17.6752 30.4953 16.3205 28.1506 15.5391 25.5938ZM14.9449 23.1562C14.5264 20.7367 14.5264 18.2633 14.9449 15.8438H24.0673C24.4858 18.2633 24.4858 20.7367 24.0673 23.1562H14.9449ZM6.09376 19.5C6.09268 18.2636 6.26341 17.0331 6.60106 15.8438H12.4678C12.094 18.2669 12.094 20.7331 12.4678 23.1562H6.60106C6.26341 21.9669 6.09268 20.7364 6.09376 19.5ZM23.4609 13.4062H15.5391C16.3195 10.849 17.6743 8.50407 19.5 6.55078C21.3248 8.50472 22.6796 10.8494 23.4609 13.4062ZM31.4331 13.4062H26.0066C25.3226 10.897 24.1699 8.53993 22.6093 6.45938C24.4949 6.91234 26.2603 7.76767 27.7843 8.96673C29.3084 10.1658 30.5552 11.6802 31.4392 13.4062H31.4331ZM16.3907 6.45938C14.8301 8.53993 13.6774 10.897 12.9934 13.4062H7.56083C8.44484 11.6802 9.69161 10.1658 11.2157 8.96673C12.7398 7.76767 14.5051 6.91234 16.3907 6.45938ZM7.56083 25.5938H12.9934C13.6774 28.103 14.8301 30.4601 16.3907 32.5406C14.5051 32.0877 12.7398 31.2323 11.2157 30.0333C9.69161 28.8342 8.44484 27.3198 7.56083 25.5938ZM22.6093 32.5406C24.1699 30.4601 25.3226 28.103 26.0066 25.5938H31.4392C30.5552 27.3198 29.3084 28.8342 27.7843 30.0333C26.2603 31.2323 24.4949 32.0877 22.6093 32.5406Z" fill="black"/>
</svg>
