<svg width="83" height="38" viewBox="0 0 83 38" fill="none" xmlns="http://www.w3.org/2000/svg">
<circle cx="41.7494" cy="18.6625" r="18.6625" fill="#40959D"/>
<path d="M14.1621 18.6625C14.1621 28.927 28.9695 37.325 18.6625 37.325C8.35548 37.325 0 28.9695 0 18.6625C0 8.35548 8.35548 0 18.6625 0C28.9695 0 15.6621 8.427 14.1621 18.6625Z" fill="white"/>
<path d="M68.3828 18.6625C68.3828 8.39795 53.5754 -1.14441e-05 63.8824 -1.14441e-05C74.1894 -1.14441e-05 82.5449 8.35546 82.5449 18.6625C82.5449 28.9695 74.1894 37.325 63.8824 37.325C53.5754 37.325 66.8828 28.8979 68.3828 18.6625Z" fill="white"/>
</svg>
