<svg width="417" height="333" viewBox="0 0 417 333" fill="none" xmlns="http://www.w3.org/2000/svg">
<path d="M31.1177 -72H1V-38.3334M31.1177 -72V-38.3334M31.1177 -72H61.2354M1 -38.3334H31.1177M1 -38.3334V-4.66645M31.1177 -38.3334H61.2354M31.1177 -38.3334V-4.66645M61.2354 -72V-38.3334M61.2354 -72H91.3531M61.2354 -38.3334H91.3531M61.2354 -38.3334V-4.66645M31.1177 -4.66645H1M31.1177 -4.66645H61.2354M31.1177 -4.66645V29M1 -4.66645V29M91.3531 -72V-38.3334M91.3531 -72H121.471M91.3531 -38.3334H121.471M91.3531 -38.3334V-4.66645M61.2354 -4.66645H91.3531M61.2354 -4.66645V29M121.471 -72V-38.3334M121.471 -72H151.588M121.471 -38.3334H151.588M121.471 -38.3334V-4.66645M91.3531 -4.66645H121.471M91.3531 -4.66645V29M151.588 -72V-38.3334M151.588 -72H181.706M151.588 -38.3334H181.706M151.588 -38.3334V-4.66645M121.471 -4.66645H151.588M121.471 -4.66645V29M181.706 -72V-38.3334M181.706 -72H211.824M181.706 -38.3334H211.824M181.706 -38.3334V-4.66645M151.588 -4.66645H181.706M151.588 -4.66645V29M211.824 -72V-38.3334M211.824 -72H241.942M211.824 -38.3334H241.942M211.824 -38.3334V-4.66645M181.706 -4.66645H211.824M181.706 -4.66645V29M241.942 -72V-38.3334M241.942 -72H272.059M241.942 -38.3334H272.059M241.942 -38.3334V-4.66645M211.824 -4.66645H241.942M211.824 -4.66645V29M272.059 -72V-38.3334M272.059 -72H302.177M272.059 -38.3334H302.177M272.059 -38.3334V-4.66645M241.942 -4.66645H272.059M241.942 -4.66645V29M302.177 -72V-38.3334M302.177 -72H332.295M302.177 -38.3334H332.295M302.177 -38.3334V-4.66645M272.059 -4.66645H302.177M272.059 -4.66645V29M332.295 -72V-38.3334M332.295 -72H362.412M332.295 -38.3334H362.412M332.295 -38.3334V-4.66645M302.177 -4.66645H332.295M302.177 -4.66645V29M362.412 -72V-38.3334M362.412 -72H392.531M362.412 -38.3334H392.531M362.412 -38.3334V-4.66645M332.295 -4.66645H362.412M332.295 -4.66645V29M392.531 -72V-38.3334M392.531 -72H422.647M392.531 -38.3334H422.647M392.531 -38.3334V-4.66645M362.412 -4.66645H392.531M362.412 -4.66645V29M422.647 -72V-38.3334M422.647 -72H452.766M422.647 -38.3334H452.766M422.647 -38.3334V-4.66645M392.531 -4.66645H422.647M392.531 -4.66645V29M452.766 -72V-38.3334M452.766 -72H482.884M452.766 -38.3334H482.884M452.766 -38.3334V-4.66645M422.647 -4.66645H452.766M422.647 -4.66645V29M482.884 -72V-38.3334M482.884 -72H513V-38.3334M482.884 -38.3334H513M482.884 -38.3334V-4.66645M452.766 -4.66645H482.884M452.766 -4.66645V29M513 -38.3334V-4.66645M482.884 -4.66645H513M482.884 -4.66645V29M513 -4.66645V29M31.1177 29H1M31.1177 29H61.2354M31.1177 29V62.6667M1 29V62.6667M61.2354 29H91.3531M61.2354 29V62.6667M91.3531 29H121.471M91.3531 29V62.6667M121.471 29H151.588M121.471 29V62.6667M151.588 29H181.706M151.588 29V62.6667M181.706 29H211.824M181.706 29V62.6667M211.824 29H241.942M211.824 29V62.6667M241.942 29H272.059M241.942 29V62.6667M272.059 29H302.177M272.059 29V62.6667M302.177 29H332.295M302.177 29V62.6667M332.295 29H362.412M332.295 29V62.6667M362.412 29H392.531M362.412 29V62.6667M392.531 29H422.647M392.531 29V62.6667M422.647 29H452.766M422.647 29V62.6667M452.766 29H482.884M452.766 29V62.6667M482.884 29H513M482.884 29V62.6667M513 29V62.6667M31.1177 62.6667H1M31.1177 62.6667H61.2354M31.1177 62.6667V96.3334M1 62.6667V96.3334M61.2354 62.6667H91.3531M61.2354 62.6667V96.3334M91.3531 62.6667H121.471M91.3531 62.6667V96.3334M121.471 62.6667H151.588M121.471 62.6667V96.3334M151.588 62.6667H181.706M151.588 62.6667V96.3334M181.706 62.6667H211.824M181.706 62.6667V96.3334M211.824 62.6667H241.942M211.824 62.6667V96.3334M241.942 62.6667H272.059M241.942 62.6667V96.3334M272.059 62.6667H302.177M272.059 62.6667V96.3334M302.177 62.6667H332.295M302.177 62.6667V96.3334M332.295 62.6667H362.412M332.295 62.6667V96.3334M362.412 62.6667H392.531M362.412 62.6667V96.3334M392.531 62.6667H422.647M392.531 62.6667V96.3334M422.647 62.6667H452.766M422.647 62.6667V96.3334M452.766 62.6667H482.884M452.766 62.6667V96.3334M482.884 62.6667H513M482.884 62.6667V96.3334M513 62.6667V96.3334M31.1177 96.3334H1M31.1177 96.3334H61.2354M31.1177 96.3334V130M1 96.3334V130M61.2354 96.3334H91.3531M61.2354 96.3334V130M91.3531 96.3334H121.471M91.3531 96.3334V130M121.471 96.3334H151.588M121.471 96.3334V130M151.588 96.3334H181.706M151.588 96.3334V130M181.706 96.3334H211.824M181.706 96.3334V130M211.824 96.3334H241.942M211.824 96.3334V130M241.942 96.3334H272.059M241.942 96.3334V130M272.059 96.3334H302.177M272.059 96.3334V130M302.177 96.3334H332.295M302.177 96.3334V130M332.295 96.3334H362.412M332.295 96.3334V130M362.412 96.3334H392.531M362.412 96.3334V130M392.531 96.3334H422.647M392.531 96.3334V130M422.647 96.3334H452.766M422.647 96.3334V130M452.766 96.3334H482.884M452.766 96.3334V130M482.884 96.3334H513M482.884 96.3334V130M513 96.3334V130M31.1177 130H1M31.1177 130H61.2354M31.1177 130V163.667M1 130V163.667M61.2354 130H91.3531M61.2354 130V163.667M91.3531 130H121.471M91.3531 130V163.667M121.471 130H151.588M121.471 130V163.667M151.588 130H181.706M151.588 130V163.667M181.706 130H211.824M181.706 130V163.667M211.824 130H241.942M211.824 130V163.667M241.942 130H272.059M241.942 130V163.667M272.059 130H302.177M272.059 130V163.667M302.177 130H332.295M302.177 130V163.667M332.295 130H362.412M332.295 130V163.667M362.412 130H392.531M362.412 130V163.667M392.531 130H422.647M392.531 130V163.667M422.647 130H452.766M422.647 130V163.667M452.766 130H482.884M452.766 130V163.667M482.884 130H513M482.884 130V163.667M513 130V163.667M31.1177 163.667H1M31.1177 163.667H61.2354M31.1177 163.667V197.333M1 163.667V197.333M61.2354 163.667H91.3531M61.2354 163.667V197.333M91.3531 163.667H121.471M91.3531 163.667V197.333M121.471 163.667H151.588M121.471 163.667V197.333M151.588 163.667H181.706M151.588 163.667V197.333M181.706 163.667H211.824M181.706 163.667V197.333M211.824 163.667H241.942M211.824 163.667V197.333M241.942 163.667H272.059M241.942 163.667V197.333M272.059 163.667H302.177M272.059 163.667V197.333M302.177 163.667H332.295M302.177 163.667V197.333M332.295 163.667H362.412M332.295 163.667V197.333M362.412 163.667H392.531M362.412 163.667V197.333M392.531 163.667H422.647M392.531 163.667V197.333M422.647 163.667H452.766M422.647 163.667V197.333M452.766 163.667H482.884M452.766 163.667V197.333M482.884 163.667H513M482.884 163.667V197.333M513 163.667V197.333M31.1177 197.333H1M31.1177 197.333H61.2354M31.1177 197.333V231M1 197.333V231M61.2354 197.333H91.3531M61.2354 197.333V231M91.3531 197.333H121.471M91.3531 197.333V231M121.471 197.333H151.588M121.471 197.333V231M151.588 197.333H181.706M151.588 197.333V231M181.706 197.333H211.824M181.706 197.333V231M211.824 197.333H241.942M211.824 197.333V231M241.942 197.333H272.059M241.942 197.333V231M272.059 197.333H302.177M272.059 197.333V231M302.177 197.333H332.295M302.177 197.333V231M332.295 197.333H362.412M332.295 197.333V231M362.412 197.333H392.531M362.412 197.333V231M392.531 197.333H422.647M392.531 197.333V231M422.647 197.333H452.766M422.647 197.333V231M452.766 197.333H482.884M452.766 197.333V231M482.884 197.333H513M482.884 197.333V231M513 197.333V231M31.1177 231H1M31.1177 231H61.2354M31.1177 231V264.666M1 231V264.666M61.2354 231H91.3531M61.2354 231V264.666M91.3531 231H121.471M91.3531 231V264.666M121.471 231H151.588M121.471 231V264.666M151.588 231H181.706M151.588 231V264.666M181.706 231H211.824M181.706 231V264.666M211.824 231H241.942M211.824 231V264.666M241.942 231H272.059M241.942 231V264.666M272.059 231H302.177M272.059 231V264.666M302.177 231H332.295M302.177 231V264.666M332.295 231H362.412M332.295 231V264.666M362.412 231H392.531M362.412 231V264.666M392.531 231H422.647M392.531 231V264.666M422.647 231H452.766M422.647 231V264.666M452.766 231H482.884M452.766 231V264.666M482.884 231H513M482.884 231V264.666M513 231V264.666M31.1177 264.666H1M31.1177 264.666H61.2354M31.1177 264.666V298.333M1 264.666V298.333M61.2354 264.666H91.3531M61.2354 264.666V298.333M91.3531 264.666H121.471M91.3531 264.666V298.333M121.471 264.666H151.588M121.471 264.666V298.333M151.588 264.666H181.706M151.588 264.666V298.333M181.706 264.666H211.824M181.706 264.666V298.333M211.824 264.666H241.942M211.824 264.666V298.333M241.942 264.666H272.059M241.942 264.666V298.333M272.059 264.666H302.177M272.059 264.666V298.333M302.177 264.666H332.295M302.177 264.666V298.333M332.295 264.666H362.412M332.295 264.666V298.333M362.412 264.666H392.531M362.412 264.666V298.333M392.531 264.666H422.647M392.531 264.666V298.333M422.647 264.666H452.766M422.647 264.666V298.333M452.766 264.666H482.884M452.766 264.666V298.333M482.884 264.666H513M482.884 264.666V298.333M513 264.666V298.333M31.1177 298.333H1M31.1177 298.333H61.2354M31.1177 298.333V332M1 298.333V332H31.1177M61.2354 298.333H91.3531M61.2354 298.333V332M91.3531 298.333H121.471M91.3531 298.333V332M121.471 298.333H151.588M121.471 298.333V332M151.588 298.333H181.706M151.588 298.333V332M181.706 298.333H211.824M181.706 298.333V332M211.824 298.333H241.942M211.824 298.333V332M241.942 298.333H272.059M241.942 298.333V332M272.059 298.333H302.177M272.059 298.333V332M302.177 298.333H332.295M302.177 298.333V332M332.295 298.333H362.412M332.295 298.333V332M362.412 298.333H392.531M362.412 298.333V332M392.531 298.333H422.647M392.531 298.333V332M422.647 298.333H452.766M422.647 298.333V332M452.766 298.333H482.884M452.766 298.333V332M482.884 298.333H513M482.884 298.333V332M513 298.333V332H482.884M31.1177 332H61.2354M61.2354 332H91.3531M91.3531 332H121.471M121.471 332H151.588M151.588 332H181.706M181.706 332H211.824M211.824 332H241.942M241.942 332H272.059M272.059 332H302.177M302.177 332H332.295M332.295 332H362.412M362.412 332H392.531M392.531 332H422.647M422.647 332H452.766M452.766 332H482.884" stroke="url(#paint0_radial_134_4634)" stroke-opacity="0.08" stroke-width="1.69815"/>
<defs>
<radialGradient id="paint0_radial_134_4634" cx="0" cy="0" r="1" gradientUnits="userSpaceOnUse" gradientTransform="translate(257.001 140.791) rotate(90) scale(190.778 256.387)">
<stop stop-color="white"/>
<stop offset="1" stop-color="white" stop-opacity="0"/>
</radialGradient>
</defs>
</svg>
