
<svg width="1512" height="1035" viewBox="0 0 1512 1035" fill="none" xmlns="http://www.w3.org/2000/svg">
<path d="M88.9414 0H0V86.1665M88.9414 0V86.1665M88.9414 0H177.883M0 86.1665H88.9414M0 86.1665V172.334M88.9414 86.1665H177.883M88.9414 86.1665V172.334M177.883 0V86.1665M177.883 0H266.824M177.883 86.1665H266.824M177.883 86.1665V172.334M88.9414 172.334H0M88.9414 172.334H177.883M88.9414 172.334V258.5M0 172.334V258.5M266.824 0V86.1665M266.824 0H355.766M266.824 86.1665H355.766M266.824 86.1665V172.334M177.883 172.334H266.824M177.883 172.334V258.5M355.766 0V86.1665M355.766 0H444.706M355.766 86.1665H444.706M355.766 86.1665V172.334M266.824 172.334H355.766M266.824 172.334V258.5M444.706 0V86.1665M444.706 0H533.648M444.706 86.1665H533.648M444.706 86.1665V172.334M355.766 172.334H444.706M355.766 172.334V258.5M533.648 0V86.1665M533.648 0H622.59M533.648 86.1665H622.59M533.648 86.1665V172.334M444.706 172.334H533.648M444.706 172.334V258.5M622.59 0V86.1665M622.59 0H711.53M622.59 86.1665H711.53M622.59 86.1665V172.334M533.648 172.334H622.59M533.648 172.334V258.5M711.53 0V86.1665M711.53 0H800.472M711.53 86.1665H800.472M711.53 86.1665V172.334M622.59 172.334H711.53M622.59 172.334V258.5M800.472 0V86.1665M800.472 0H889.414M800.472 86.1665H889.414M800.472 86.1665V172.334M711.53 172.334H800.472M711.53 172.334V258.5M889.414 0V86.1665M889.414 0H978.354M889.414 86.1665H978.354M889.414 86.1665V172.334M800.472 172.334H889.414M800.472 172.334V258.5M978.354 0V86.1665M978.354 0H1067.3M978.354 86.1665H1067.3M978.354 86.1665V172.334M889.414 172.334H978.354M889.414 172.334V258.5M1067.3 0V86.1665M1067.3 0H1156.24M1067.3 86.1665H1156.24M1067.3 86.1665V172.334M978.354 172.334H1067.3M978.354 172.334V258.5M1156.24 0V86.1665M1156.24 0H1245.18M1156.24 86.1665H1245.18M1156.24 86.1665V172.334M1067.3 172.334H1156.24M1067.3 172.334V258.5M1245.18 0V86.1665M1245.18 0H1334.12M1245.18 86.1665H1334.12M1245.18 86.1665V172.334M1156.24 172.334H1245.18M1156.24 172.334V258.5M1334.12 0V86.1665M1334.12 0H1423.06M1334.12 86.1665H1423.06M1334.12 86.1665V172.334M1245.18 172.334H1334.12M1245.18 172.334V258.5M1423.06 0V86.1665M1423.06 0H1512V86.1665M1423.06 86.1665H1512M1423.06 86.1665V172.334M1334.12 172.334H1423.06M1334.12 172.334V258.5M1512 86.1665V172.334M1423.06 172.334H1512M1423.06 172.334V258.5M1512 172.334V258.5M88.9414 258.5H0M88.9414 258.5H177.883M88.9414 258.5V344.667M0 258.5V344.667M177.883 258.5H266.824M177.883 258.5V344.667M266.824 258.5H355.766M266.824 258.5V344.667M355.766 258.5H444.706M355.766 258.5V344.667M444.706 258.5H533.648M444.706 258.5V344.667M533.648 258.5H622.59M533.648 258.5V344.667M622.59 258.5H711.53M622.59 258.5V344.667M711.53 258.5H800.472M711.53 258.5V344.667M800.472 258.5H889.414M800.472 258.5V344.667M889.414 258.5H978.354M889.414 258.5V344.667M978.354 258.5H1067.3M978.354 258.5V344.667M1067.3 258.5H1156.24M1067.3 258.5V344.667M1156.24 258.5H1245.18M1156.24 258.5V344.667M1245.18 258.5H1334.12M1245.18 258.5V344.667M1334.12 258.5H1423.06M1334.12 258.5V344.667M1423.06 258.5H1512M1423.06 258.5V344.667M1512 258.5V344.667M88.9414 344.667H0M88.9414 344.667H177.883M88.9414 344.667V430.833M0 344.667V430.833M177.883 344.667H266.824M177.883 344.667V430.833M266.824 344.667H355.766M266.824 344.667V430.833M355.766 344.667H444.706M355.766 344.667V430.833M444.706 344.667H533.648M444.706 344.667V430.833M533.648 344.667H622.59M533.648 344.667V430.833M622.59 344.667H711.53M622.59 344.667V430.833M711.53 344.667H800.472M711.53 344.667V430.833M800.472 344.667H889.414M800.472 344.667V430.833M889.414 344.667H978.354M889.414 344.667V430.833M978.354 344.667H1067.3M978.354 344.667V430.833M1067.3 344.667H1156.24M1067.3 344.667V430.833M1156.24 344.667H1245.18M1156.24 344.667V430.833M1245.18 344.667H1334.12M1245.18 344.667V430.833M1334.12 344.667H1423.06M1334.12 344.667V430.833M1423.06 344.667H1512M1423.06 344.667V430.833M1512 344.667V430.833M88.9414 430.833H0M88.9414 430.833H177.883M88.9414 430.833V517M0 430.833V517M177.883 430.833H266.824M177.883 430.833V517M266.824 430.833H355.766M266.824 430.833V517M355.766 430.833H444.706M355.766 430.833V517M444.706 430.833H533.648M444.706 430.833V517M533.648 430.833H622.59M533.648 430.833V517M622.59 430.833H711.53M622.59 430.833V517M711.53 430.833H800.472M711.53 430.833V517M800.472 430.833H889.414M800.472 430.833V517M889.414 430.833H978.354M889.414 430.833V517M978.354 430.833H1067.3M978.354 430.833V517M1067.3 430.833H1156.24M1067.3 430.833V517M1156.24 430.833H1245.18M1156.24 430.833V517M1245.18 430.833H1334.12M1245.18 430.833V517M1334.12 430.833H1423.06M1334.12 430.833V517M1423.06 430.833H1512M1423.06 430.833V517M1512 430.833V517M88.9414 517H0M88.9414 517H177.883M88.9414 517V603.167M0 517V603.167M177.883 517H266.824M177.883 517V603.167M266.824 517H355.766M266.824 517V603.167M355.766 517H444.706M355.766 517V603.167M444.706 517H533.648M444.706 517V603.167M533.648 517H622.59M533.648 517V603.167M622.59 517H711.53M622.59 517V603.167M711.53 517H800.472M711.53 517V603.167M800.472 517H889.414M800.472 517V603.167M889.414 517H978.354M889.414 517V603.167M978.354 517H1067.3M978.354 517V603.167M1067.3 517H1156.24M1067.3 517V603.167M1156.24 517H1245.18M1156.24 517V603.167M1245.18 517H1334.12M1245.18 517V603.167M1334.12 517H1423.06M1334.12 517V603.167M1423.06 517H1512M1423.06 517V603.167M1512 517V603.167M88.9414 603.167H0M88.9414 603.167H177.883M88.9414 603.167V689.333M0 603.167V689.333M177.883 603.167H266.824M177.883 603.167V689.333M266.824 603.167H355.766M266.824 603.167V689.333M355.766 603.167H444.706M355.766 603.167V689.333M444.706 603.167H533.648M444.706 603.167V689.333M533.648 603.167H622.59M533.648 603.167V689.333M622.59 603.167H711.53M622.59 603.167V689.333M711.53 603.167H800.472M711.53 603.167V689.333M800.472 603.167H889.414M800.472 603.167V689.333M889.414 603.167H978.354M889.414 603.167V689.333M978.354 603.167H1067.3M978.354 603.167V689.333M1067.3 603.167H1156.24M1067.3 603.167V689.333M1156.24 603.167H1245.18M1156.24 603.167V689.333M1245.18 603.167H1334.12M1245.18 603.167V689.333M1334.12 603.167H1423.06M1334.12 603.167V689.333M1423.06 603.167H1512M1423.06 603.167V689.333M1512 603.167V689.333M88.9414 689.333H0M88.9414 689.333H177.883M88.9414 689.333V775.5M0 689.333V775.5M177.883 689.333H266.824M177.883 689.333V775.5M266.824 689.333H355.766M266.824 689.333V775.5M355.766 689.333H444.706M355.766 689.333V775.5M444.706 689.333H533.648M444.706 689.333V775.5M533.648 689.333H622.59M533.648 689.333V775.5M622.59 689.333H711.53M622.59 689.333V775.5M711.53 689.333H800.472M711.53 689.333V775.5M800.472 689.333H889.414M800.472 689.333V775.5M889.414 689.333H978.354M889.414 689.333V775.5M978.354 689.333H1067.3M978.354 689.333V775.5M1067.3 689.333H1156.24M1067.3 689.333V775.5M1156.24 689.333H1245.18M1156.24 689.333V775.5M1245.18 689.333H1334.12M1245.18 689.333V775.5M1334.12 689.333H1423.06M1334.12 689.333V775.5M1423.06 689.333H1512M1423.06 689.333V775.5M1512 689.333V775.5M88.9414 775.5H0M88.9414 775.5H177.883M88.9414 775.5V861.666M0 775.5V861.666M177.883 775.5H266.824M177.883 775.5V861.666M266.824 775.5H355.766M266.824 775.5V861.666M355.766 775.5H444.706M355.766 775.5V861.666M444.706 775.5H533.648M444.706 775.5V861.666M533.648 775.5H622.59M533.648 775.5V861.666M622.59 775.5H711.53M622.59 775.5V861.666M711.53 775.5H800.472M711.53 775.5V861.666M800.472 775.5H889.414M800.472 775.5V861.666M889.414 775.5H978.354M889.414 775.5V861.666M978.354 775.5H1067.3M978.354 775.5V861.666M1067.3 775.5H1156.24M1067.3 775.5V861.666M1156.24 775.5H1245.18M1156.24 775.5V861.666M1245.18 775.5H1334.12M1245.18 775.5V861.666M1334.12 775.5H1423.06M1334.12 775.5V861.666M1423.06 775.5H1512M1423.06 775.5V861.666M1512 775.5V861.666M88.9414 861.666H0M88.9414 861.666H177.883M88.9414 861.666V947.833M0 861.666V947.833M177.883 861.666H266.824M177.883 861.666V947.833M266.824 861.666H355.766M266.824 861.666V947.833M355.766 861.666H444.706M355.766 861.666V947.833M444.706 861.666H533.648M444.706 861.666V947.833M533.648 861.666H622.59M533.648 861.666V947.833M622.59 861.666H711.53M622.59 861.666V947.833M711.53 861.666H800.472M711.53 861.666V947.833M800.472 861.666H889.414M800.472 861.666V947.833M889.414 861.666H978.354M889.414 861.666V947.833M978.354 861.666H1067.3M978.354 861.666V947.833M1067.3 861.666H1156.24M1067.3 861.666V947.833M1156.24 861.666H1245.18M1156.24 861.666V947.833M1245.18 861.666H1334.12M1245.18 861.666V947.833M1334.12 861.666H1423.06M1334.12 861.666V947.833M1423.06 861.666H1512M1423.06 861.666V947.833M1512 861.666V947.833M88.9414 947.833H0M88.9414 947.833H177.883M88.9414 947.833V1034M0 947.833V1034H88.9414M177.883 947.833H266.824M177.883 947.833V1034M266.824 947.833H355.766M266.824 947.833V1034M355.766 947.833H444.706M355.766 947.833V1034M444.706 947.833H533.648M444.706 947.833V1034M533.648 947.833H622.59M533.648 947.833V1034M622.59 947.833H711.53M622.59 947.833V1034M711.53 947.833H800.472M711.53 947.833V1034M800.472 947.833H889.414M800.472 947.833V1034M889.414 947.833H978.354M889.414 947.833V1034M978.354 947.833H1067.3M978.354 947.833V1034M1067.3 947.833H1156.24M1067.3 947.833V1034M1156.24 947.833H1245.18M1156.24 947.833V1034M1245.18 947.833H1334.12M1245.18 947.833V1034M1334.12 947.833H1423.06M1334.12 947.833V1034M1423.06 947.833H1512M1423.06 947.833V1034M1512 947.833V1034H1423.06M88.9414 1034H177.883M177.883 1034H266.824M266.824 1034H355.766M355.766 1034H444.706M444.706 1034H533.648M533.648 1034H622.59M622.59 1034H711.53M711.53 1034H800.472M800.472 1034H889.414M889.414 1034H978.354M978.354 1034H1067.3M1067.3 1034H1156.24M1156.24 1034H1245.18M1245.18 1034H1334.12M1334.12 1034H1423.06" stroke="url(#paint0_radial_134_552)" stroke-opacity="0.08" stroke-width="1.69815"/>
<defs>
<radialGradient id="paint0_radial_134_552" cx="0" cy="0" r="1" gradientUnits="userSpaceOnUse" gradientTransform="translate(756.002 544.617) rotate(90) scale(488.278 757.142)">
<stop stop-color="white"/>
<stop offset="1" stop-color="white" stop-opacity="0"/>
</radialGradient>
</defs>
</svg>
